<?xml version="1.0" encoding="UTF-8"?>
<!DOCTYPE svg PUBLIC "-//W3C//DTD SVG 1.1//EN" "http://www.w3.org/Graphics/SVG/1.1/DTD/svg11.dtd">
<!-- Creator: CorelDRAW -->
<svg xmlns="http://www.w3.org/2000/svg" xml:space="preserve" width="3.69339in" height="1.13054in" version="1.1" style="shape-rendering:geometricPrecision; text-rendering:geometricPrecision; image-rendering:optimizeQuality; fill-rule:evenodd; clip-rule:evenodd"
viewBox="0 0 15756 4822.89"
 xmlns:xlink="http://www.w3.org/1999/xlink"
 xmlns:xodm="http://www.corel.com/coreldraw/odm/2003">
 <defs>
  <style type="text/css">
   <![CDATA[
    .fil0 {fill:#FEFEFE;fill-rule:nonzero}
   ]]>
  </style>
 </defs>
 <g id="Layer_x0020_1">
  <metadata id="CorelCorpID_0Corel-Layer"/>
  <g id="_1246187970288">
   <g>
    <path class="fil0" d="M4051.36 1773.06c54.32,-38.49 177.61,-57.73 370.76,-57.73 247.04,0 457.76,87.22 631.7,261.65 173.98,174.44 260.93,385.3 260.93,633.45 0,248.13 -86.95,459.44 -260.93,634.69 -173.95,175.24 -384.23,262.86 -631.7,262.86 -247.43,0 -460.19,-87.62 -634.12,-262.86 -173.97,-175.26 -260.95,-386.56 -260.95,-634.69l0 -1355.78 523.93 0 0 518.4 0.39 0zm630.48 1100.26c72.67,-72.87 109,-160.51 109,-262.88 0,-102.37 -36.33,-189.59 -109,-261.65 -72.71,-72.07 -159.24,-108.11 -259.72,-108.11 -100.44,0 -189.45,36.04 -262.16,108.11 -72.67,72.07 -108.98,159.29 -108.98,261.65 0,102.37 36.31,190.01 108.98,262.88 72.71,72.89 160.08,109.34 262.16,109.34 102.07,0 187.02,-36.45 259.72,-109.34z"/>
    <path class="fil0" d="M5697.35 1585.95c-73.5,0 -135.55,-25.39 -186.58,-76.99 -51.06,-51.19 -76.77,-113.42 -76.77,-187.13 0,-73.7 25.29,-133.49 76.77,-184.68 51.43,-51.18 113.08,-76.97 186.58,-76.97 73.53,0 133.14,25.8 184.18,76.97 51.02,51.19 76.77,112.61 76.77,184.68 0,72.07 -25.75,135.94 -76.77,187.13 -51.04,51.18 -112.28,76.99 -184.18,76.99zm260.95 129.39l0 1792.26 -523.88 0 0 -1792.26 523.88 0z"/>
    <path class="fil0" d="M7606.76 1972.07c173.98,-171.16 383.45,-256.73 629.25,-256.73 245.83,0 457.76,87.22 631.7,261.65 173.97,174.44 260.95,385.3 260.95,633.45l0 897.15 -523.93 0 0 -897.15c0,-102.37 -36.31,-189.59 -108.98,-261.65 -72.72,-72.07 -159.25,-108.11 -259.74,-108.11 -100.45,0 -189.43,36.04 -262.16,108.11 -72.69,72.07 -109,159.29 -109,261.65l0 897.15 -523.91 0 0 -897.15c0,-102.37 -36.33,-189.59 -109.05,-261.65 -72.66,-72.07 -159.24,-108.11 -259.69,-108.11 -100.44,0 -189.48,36.04 -262.14,108.11 -72.67,72.07 -109.04,159.29 -109.04,261.65l0 897.15 -523.88 0 0 -897.15c0,-247.73 86.95,-459.02 260.9,-633.45 173.98,-174.44 385.08,-261.65 634.16,-261.65 249.09,0 456.97,85.57 634.17,256.73l0.39 0z"/>
    <path class="fil0" d="M9771.8 2240.68l0 369.35c0,102.37 36.31,190.01 108.98,262.9 72.71,72.87 189.48,109.32 350.37,109.32l0 525.36c-307.87,0 -548.79,-87.62 -722.77,-262.88 -173.93,-175.26 -260.9,-386.54 -260.9,-634.69l0 -1355.77 523.88 0 0 460.66 459.4 0 0 525.37 -459.4 0 0.44 0.39z"/>
    <path class="fil0" d="M11614.21 2859.82l0 -249.38c0,-102.37 -36.35,-189.59 -109.02,-261.65 -72.72,-72.07 -159.25,-108.11 -259.74,-108.11 -100.44,0 -189.43,36.04 -262.11,108.11 -72.72,72.07 -109.04,159.29 -109.04,261.65 0,102.37 36.31,190.01 109.04,262.88 72.67,72.89 160.03,109.34 262.11,109.34l892.65 -2.47 0 527.81 -892.65 0c-248.64,0 -460.19,-87.62 -634.12,-262.86 -173.98,-175.26 -260.95,-386.56 -260.95,-634.69 0,-248.15 86.97,-459.02 260.95,-633.45 173.93,-174.44 385.05,-261.65 634.12,-261.65 249.12,0 457.77,87.22 631.7,261.65 173.98,174.44 260.95,385.3 260.95,633.45l0 249.38 -523.9 0z"/>
    <path class="fil0" d="M13784.54 3245.94c-173.98,174.44 -384.24,261.65 -631.7,261.65 -247.46,0 -460.17,-87.62 -634.17,-262.88 -173.93,-175.26 -260.9,-386.54 -260.9,-634.69 0,-248.13 86.97,-459.02 260.9,-633.45 174,-174.44 385.1,-261.65 634.17,-261.65 249.07,0 457.72,87.22 631.7,261.65l64.51 64.7 -370.76 371.8 -64.51 -64.7c-73.55,-72.07 -160.51,-108.08 -260.95,-108.08 -100.44,0 -189.48,36.01 -262.16,108.08 -72.67,72.09 -109.02,159.3 -109.02,261.65 0,102.37 36.35,190.01 109.02,262.9 72.67,72.87 160.08,109.32 262.16,109.32 102.08,0 187.4,-36.83 260.95,-110.56l64.51 -64.7 370.76 371.8 -64.51 67.16z"/>
    <path class="fil0" d="M14492.59 2610.44l0 897.15 -523.88 0 0 -2252.94 523.88 0 0 518.4c54.32,-38.49 178.05,-57.73 370.76,-57.73 247.08,0 457.76,87.22 631.7,261.65 173.98,174.44 260.95,385.3 260.95,633.45l0 897.15 -523.9 0 0 -897.15c0,-102.37 -36.35,-189.59 -109.02,-261.65 -72.72,-72.07 -159.25,-108.11 -259.74,-108.11 -100.44,0 -189.43,36.04 -262.11,108.11 -72.72,72.07 -109.04,159.29 -109.04,261.65l0.39 0z"/>
   </g>
   <g>
    <path class="fil0" d="M407.37 88.39c891.29,-395.97 2457.69,622.25 2457.69,1389.74 0,767.48 -1904.86,679.72 -2294.84,1510.5 -389.7,830.78 2513.48,-657.4 1826.19,-1588.78 -687.62,-931.08 -2880.31,-915.48 -1989.03,-1311.46z"/>
    <path class="fil0" d="M359.5 1250.02c1023.94,-395.06 2722.37,848.82 2677.22,1716.9 -45.43,868.08 -2178.97,656.19 -2665.63,1573.18 -486.96,916.72 2860.79,-595.33 2144.22,-1689.37 -716.87,-1093.74 -3179.74,-1205.33 -2155.81,-1600.71z"/>
    <path class="fil0" d="M519.6 3392.25c0,143.89 -116.31,260.51 -259.79,260.51 -143.48,0 -259.81,-116.63 -259.81,-260.51 0,-143.87 116.32,-260.51 259.81,-260.51 143.48,0 259.79,116.64 259.79,260.51z"/>
   </g>
  </g>
 </g>
</svg>
