<?xml version="1.0" encoding="UTF-8"?>
<!DOCTYPE svg PUBLIC "-//W3C//DTD SVG 1.1//EN" "http://www.w3.org/Graphics/SVG/1.1/DTD/svg11.dtd">
<!-- Creator: CorelDRAW -->
<svg xmlns="http://www.w3.org/2000/svg" xml:space="preserve" width="3.69339in" height="1.13054in" version="1.1" style="shape-rendering:geometricPrecision; text-rendering:geometricPrecision; image-rendering:optimizeQuality; fill-rule:evenodd; clip-rule:evenodd"
viewBox="0 0 1736.36 531.5"
 xmlns:xlink="http://www.w3.org/1999/xlink"
 xmlns:xodm="http://www.corel.com/coreldraw/odm/2003">
 <defs>
  <style type="text/css">
   <![CDATA[
    .fil3 {fill:url(#id0);fill-rule:nonzero}
    .fil7 {fill:url(#id1);fill-rule:nonzero}
    .fil9 {fill:url(#id2);fill-rule:nonzero}
    .fil0 {fill:url(#id3);fill-rule:nonzero}
    .fil4 {fill:url(#id4);fill-rule:nonzero}
    .fil8 {fill:url(#id5);fill-rule:nonzero}
    .fil2 {fill:url(#id6);fill-rule:nonzero}
    .fil6 {fill:url(#id7);fill-rule:nonzero}
    .fil5 {fill:url(#id8);fill-rule:nonzero}
    .fil1 {fill:url(#id9);fill-rule:nonzero}
   ]]>
  </style>
  <linearGradient id="id0" gradientUnits="userSpaceOnUse" x1="465.77" y1="-269.86" x2="1726.84" y2="832.47">
   <stop offset="0" style="stop-opacity:1; stop-color:#C78843"/>
   <stop offset="0.411765" style="stop-opacity:1; stop-color:#D09143"/>
   <stop offset="1" style="stop-opacity:1; stop-color:#E6AE3A"/>
  </linearGradient>
  <linearGradient id="id1" gradientUnits="userSpaceOnUse" x1="186.52" y1="29.34" x2="186.52" y2="305.61">
   <stop offset="0" style="stop-opacity:1; stop-color:#E69332"/>
   <stop offset="1" style="stop-opacity:1; stop-color:#8E5723"/>
  </linearGradient>
  <linearGradient id="id2" gradientUnits="userSpaceOnUse" x1="35.54" y1="345.65" x2="17.77" y2="402.67">
   <stop offset="0" style="stop-opacity:1; stop-color:#804E20"/>
   <stop offset="1" style="stop-opacity:1; stop-color:#AF7A3A"/>
  </linearGradient>
  <linearGradient id="id3" gradientUnits="userSpaceOnUse" x1="194.52" y1="30.78" x2="1455.59" y2="1137.88">
   <stop offset="0" style="stop-opacity:1; stop-color:#C78843"/>
   <stop offset="0.0117647" style="stop-opacity:1; stop-color:#C78843"/>
   <stop offset="0.411765" style="stop-opacity:1; stop-color:#D09143"/>
   <stop offset="1" style="stop-opacity:1; stop-color:#E6AE3A"/>
  </linearGradient>
  <linearGradient id="id4" gradientUnits="userSpaceOnUse" xlink:href="#id0" x1="522.88" y1="-336.67" x2="1783.94" y2="765.66">
  </linearGradient>
  <linearGradient id="id5" gradientUnits="userSpaceOnUse" x1="200.82" y1="162.1" x2="184.82" y2="478.5">
   <stop offset="0" style="stop-opacity:1; stop-color:#B4822C"/>
   <stop offset="1" style="stop-opacity:1; stop-color:#E6AE3A"/>
  </linearGradient>
  <linearGradient id="id6" gradientUnits="userSpaceOnUse" xlink:href="#id0" x1="332.53" y1="-121.93" x2="1593.59" y2="980.4">
  </linearGradient>
  <linearGradient id="id7" gradientUnits="userSpaceOnUse" xlink:href="#id0" x1="679.92" y1="-522.77" x2="1945.74" y2="584.33">
  </linearGradient>
  <linearGradient id="id8" gradientUnits="userSpaceOnUse" xlink:href="#id0" x1="613.29" y1="-441.64" x2="1874.36" y2="660.68">
  </linearGradient>
  <linearGradient id="id9" gradientUnits="userSpaceOnUse" xlink:href="#id0" x1="270.66" y1="-55.12" x2="1531.73" y2="1051.98">
  </linearGradient>
 </defs>
 <g id="Layer_x0020_1">
  <metadata id="CorelCorpID_0Corel-Layer"/>
  <g id="_1246187968560">
   <g>
    <path class="fil0" d="M446.47 195.4c5.99,-4.24 19.57,-6.36 40.86,-6.36 27.22,0 50.45,9.61 69.62,28.84 19.17,19.22 28.76,42.46 28.76,69.81 0,27.35 -9.58,50.63 -28.76,69.95 -19.17,19.31 -42.34,28.97 -69.62,28.97 -27.27,0 -50.71,-9.66 -69.88,-28.97 -19.17,-19.31 -28.76,-42.6 -28.76,-69.95l0 -149.41 57.74 0 0 57.13 0.04 0zm69.48 121.25c8.01,-8.03 12.01,-17.69 12.01,-28.97 0,-11.28 -4,-20.89 -12.01,-28.84 -8.01,-7.94 -17.55,-11.91 -28.62,-11.91 -11.07,0 -20.88,3.97 -28.89,11.91 -8.01,7.94 -12.01,17.55 -12.01,28.84 0,11.28 4,20.94 12.01,28.97 8.01,8.03 17.64,12.05 28.89,12.05 11.25,0 20.61,-4.02 28.62,-12.05z"/>
    <path class="fil1" d="M627.86 174.78c-8.1,0 -14.94,-2.8 -20.56,-8.48 -5.63,-5.64 -8.46,-12.5 -8.46,-20.62 0,-8.12 2.79,-14.71 8.46,-20.35 5.67,-5.64 12.46,-8.48 20.56,-8.48 8.1,0 14.67,2.84 20.3,8.48 5.62,5.64 8.46,12.41 8.46,20.35 0,7.94 -2.84,14.98 -8.46,20.62 -5.62,5.64 -12.37,8.48 -20.3,8.48zm28.76 14.26l0 197.51 -57.73 0 0 -197.51 57.73 0z"/>
    <path class="fil2" d="M838.29 217.33c19.17,-18.86 42.26,-28.29 69.35,-28.29 27.09,0 50.45,9.61 69.62,28.84 19.17,19.22 28.76,42.46 28.76,69.81l0 98.87 -57.74 0 0 -98.87c0,-11.28 -4,-20.89 -12.01,-28.84 -8.01,-7.94 -17.55,-11.91 -28.62,-11.91 -11.07,0 -20.88,3.97 -28.89,11.91 -8.01,7.94 -12.01,17.55 -12.01,28.84l0 98.87 -57.74 0 0 -98.87c0,-11.28 -4,-20.89 -12.02,-28.84 -8.01,-7.94 -17.55,-11.91 -28.62,-11.91 -11.07,0 -20.88,3.97 -28.89,11.91 -8.01,7.94 -12.02,17.55 -12.02,28.84l0 98.87 -57.73 0 0 -98.87c0,-27.3 9.58,-50.58 28.75,-69.81 19.17,-19.22 42.44,-28.84 69.89,-28.84 27.45,0 50.36,9.43 69.89,28.29l0.04 0z"/>
    <path class="fil3" d="M1076.88 246.93l0 40.7c0,11.28 4,20.94 12.01,28.97 8.01,8.03 20.88,12.05 38.61,12.05l0 57.9c-33.93,0 -60.48,-9.66 -79.65,-28.97 -19.17,-19.31 -28.75,-42.6 -28.75,-69.95l0 -149.41 57.73 0 0 50.77 50.63 0 0 57.9 -50.63 0 0.05 0.04z"/>
    <path class="fil4" d="M1279.92 315.16l0 -27.48c0,-11.28 -4.01,-20.89 -12.01,-28.84 -8.01,-7.94 -17.55,-11.91 -28.62,-11.91 -11.07,0 -20.88,3.97 -28.89,11.91 -8.01,7.94 -12.02,17.55 -12.02,28.84 0,11.28 4,20.94 12.02,28.97 8.01,8.03 17.64,12.05 28.89,12.05l98.37 -0.27 0 58.17 -98.37 0c-27.4,0 -50.71,-9.66 -69.88,-28.97 -19.17,-19.31 -28.76,-42.6 -28.76,-69.95 0,-27.35 9.58,-50.58 28.76,-69.81 19.17,-19.22 42.43,-28.84 69.88,-28.84 27.45,0 50.45,9.61 69.62,28.84 19.17,19.22 28.76,42.46 28.76,69.81l0 27.48 -57.73 0z"/>
    <path class="fil5" d="M1519.1 357.71c-19.17,19.22 -42.34,28.84 -69.62,28.84 -27.27,0 -50.71,-9.66 -69.89,-28.97 -19.17,-19.31 -28.75,-42.6 -28.75,-69.95 0,-27.35 9.58,-50.58 28.75,-69.81 19.18,-19.22 42.44,-28.84 69.89,-28.84 27.45,0 50.44,9.61 69.62,28.84l7.11 7.13 -40.86 40.97 -7.11 -7.13c-8.11,-7.94 -17.69,-11.91 -28.76,-11.91 -11.07,0 -20.88,3.97 -28.89,11.91 -8.01,7.94 -12.01,17.56 -12.01,28.84 0,11.28 4.01,20.94 12.01,28.97 8.01,8.03 17.64,12.05 28.89,12.05 11.25,0 20.65,-4.06 28.76,-12.18l7.11 -7.13 40.86 40.97 -7.11 7.4z"/>
    <path class="fil6" d="M1597.13 287.68l0 98.87 -57.73 0 0 -248.28 57.73 0 0 57.13c5.99,-4.24 19.62,-6.36 40.86,-6.36 27.23,0 50.45,9.61 69.62,28.84 19.17,19.22 28.76,42.46 28.76,69.81l0 98.87 -57.73 0 0 -98.87c0,-11.28 -4.01,-20.89 -12.01,-28.84 -8.01,-7.94 -17.55,-11.91 -28.62,-11.91 -11.07,0 -20.88,3.97 -28.89,11.91 -8.01,7.94 -12.02,17.55 -12.02,28.84l0.04 0z"/>
   </g>
   <g>
    <path class="fil7" d="M44.89 9.74c98.22,-43.64 270.84,68.57 270.84,153.15 0,84.58 -209.92,74.91 -252.9,166.46 -42.95,91.55 276.99,-72.45 201.25,-175.09 -75.78,-102.61 -317.42,-100.89 -219.2,-144.53z"/>
    <path class="fil8" d="M39.62 137.76c112.84,-43.54 300.01,93.54 295.04,189.21 -5.01,95.67 -240.13,72.31 -293.76,173.37 -53.66,101.03 315.27,-65.61 236.3,-186.17 -79,-120.53 -350.42,-132.83 -237.58,-176.4z"/>
    <path class="fil9" d="M57.26 373.84c0,15.86 -12.82,28.71 -28.63,28.71 -15.81,0 -28.63,-12.85 -28.63,-28.71 0,-15.85 12.82,-28.71 28.63,-28.71 15.81,0 28.63,12.85 28.63,28.71z"/>
   </g>
  </g>
 </g>
</svg>
