<?xml version="1.0" encoding="UTF-8"?>
<!DOCTYPE svg PUBLIC "-//W3C//DTD SVG 1.1//EN" "http://www.w3.org/Graphics/SVG/1.1/DTD/svg11.dtd">
<!-- Creator: CorelDRAW -->
<svg xmlns="http://www.w3.org/2000/svg" xml:space="preserve" width="0.712047in" height="1.13054in" version="1.1" style="shape-rendering:geometricPrecision; text-rendering:geometricPrecision; image-rendering:optimizeQuality; fill-rule:evenodd; clip-rule:evenodd"
viewBox="0 0 186.1 295.47"
 xmlns:xlink="http://www.w3.org/1999/xlink"
 xmlns:xodm="http://www.corel.com/coreldraw/odm/2003">
 <defs>
  <style type="text/css">
   <![CDATA[
    .fil0 {fill:#FEFEFE;fill-rule:nonzero}
   ]]>
  </style>
 </defs>
 <g id="Layer_x0020_1">
  <metadata id="CorelCorpID_0Corel-Layer"/>
  <g id="_1246182548752">
   <path class="fil0" d="M24.96 5.42c54.6,-24.26 150.57,38.12 150.57,85.14 0,47.02 -116.7,41.64 -140.59,92.54 -23.87,50.9 153.99,-40.28 111.88,-97.34 -42.13,-57.04 -176.46,-56.09 -121.86,-80.35z"/>
   <path class="fil0" d="M22.02 76.58c62.73,-24.2 166.78,52 164.02,105.19 -2.78,53.18 -133.49,40.2 -163.31,96.38 -29.83,56.16 175.27,-36.47 131.36,-103.5 -43.92,-67.01 -194.81,-73.85 -132.07,-98.07z"/>
   <path class="fil0" d="M31.83 207.82c0,8.82 -7.13,15.96 -15.92,15.96 -8.79,0 -15.92,-7.15 -15.92,-15.96 0,-8.81 7.13,-15.96 15.92,-15.96 8.79,0 15.92,7.15 15.92,15.96z"/>
  </g>
 </g>
</svg>
